<?xml version="1.0" standalone="no"?>
<!DOCTYPE svg PUBLIC "-//W3C//DTD SVG 20010904//EN"
 "http://www.w3.org/TR/2001/REC-SVG-20010904/DTD/svg10.dtd">
<svg version="1.0" xmlns="http://www.w3.org/2000/svg"
 width="700.000000pt" height="700.000000pt" viewBox="0 0 700.000000 700.000000"
 preserveAspectRatio="xMidYMid meet">
<metadata>
Created by potrace 1.11, written by Peter Selinger 2001-2013
</metadata>
<g transform="translate(0.000000,700.000000) scale(0.100000,-0.100000)"
fill="#000000" stroke="none">
<path d="M1170 6985 c-305 -52 -572 -193 -786 -417 -178 -187 -294 -406 -361
-681 -16 -67 -18 -215 -21 -2337 -2 -1607 0 -2288 8 -2345 83 -605 558 -1091
1165 -1190 135 -22 4515 -22 4650 0 356 58 677 252 897 540 135 178 237 425
268 650 8 57 10 740 8 2345 -3 2122 -5 2270 -21 2337 -71 293 -187 504 -387
703 -200 200 -414 318 -700 386 -71 17 -199 19 -2360 20 -1812 2 -2301 -1
-2360 -11z m1147 -1952 c34 -82 243 -602 466 -1158 223 -555 500 -1245 616
-1533 l210 -522 -230 2 -230 3 -191 488 -191 487 -772 0 -772 0 -178 -452
c-98 -249 -184 -470 -192 -490 l-15 -38 -234 0 -233 0 49 117 c26 65 213 523
415 1018 362 888 438 1073 750 1838 l159 387 256 0 257 0 60 -147z m3322 123
c292 -50 500 -146 626 -288 63 -72 130 -212 151 -317 20 -103 15 -323 -11
-416 -68 -246 -249 -425 -521 -514 -69 -23 -83 -30 -64 -34 14 -3 63 -13 110
-22 346 -69 586 -273 672 -570 20 -69 23 -101 22 -240 -1 -132 -5 -174 -23
-240 -85 -312 -317 -528 -678 -630 -209 -59 -189 -58 -1075 -62 l-818 -4 0
1681 0 1681 758 -4 c643 -4 771 -7 851 -21z"/>
<path d="M1930 4653 c-61 -184 -176 -489 -438 -1160 -71 -183 -127 -335 -124
-338 6 -6 1262 -7 1262 -1 0 3 -114 298 -254 658 -139 359 -281 737 -315 841
-35 103 -64 187 -66 187 -2 0 -31 -84 -65 -187z"/>
<path d="M4480 4285 l0 -536 493 4 c529 4 543 6 691 61 160 61 263 177 302
343 20 85 15 264 -10 340 -47 148 -180 248 -396 299 -65 15 -143 18 -577 21
l-503 4 0 -536z"/>
<path d="M4480 2790 l0 -610 523 0 c641 0 719 9 892 98 183 95 278 271 278
517 1 183 -39 291 -148 401 -104 105 -266 168 -497 193 -54 6 -308 11 -573 11
l-475 0 0 -610z"/>
</g>
</svg>
